<svg width="41" height="40" viewBox="0 0 41 40" fill="none" xmlns="http://www.w3.org/2000/svg">
<g clip-path="url(#clip0_184_902)">
<g filter="url(#filter0_b_184_902)">
<mask id="path-1-inside-1_184_902" fill="white">
<path fill-rule="evenodd" clip-rule="evenodd" d="M19.3467 10.6882H21.7196C21.7196 10.3159 21.7223 9.95171 21.725 9.59254C21.7303 8.88871 21.7354 8.20396 21.7196 7.51397C21.6956 6.8911 21.1923 6.43593 20.5931 6.39999C19.9939 6.37604 19.3947 6.79528 19.3587 7.39419C19.3252 8.15571 19.3327 8.91723 19.3402 9.68692C19.3435 10.0189 19.3467 10.3525 19.3467 10.6882ZM3.22868 22.3833C2.85608 23.6245 2.48441 24.8627 2.53316 26.188C2.53316 26.2679 2.53183 26.3477 2.5305 26.4276C2.52783 26.5873 2.52517 26.747 2.53316 26.9067C2.79681 31.0751 6.76352 33.7702 10.7302 32.4526C12.4919 31.8657 13.7502 30.6799 14.4812 28.9789C15.1523 27.4338 16.2309 26.2958 17.8128 25.7328C19.4186 25.1579 21.0844 25.1699 22.7143 25.5652C24.4999 26.0083 25.6503 27.2181 26.3933 28.8831C27.6277 31.674 30.7196 33.2671 33.5598 32.6083C36.9752 31.8178 39.2282 28.2363 38.3294 24.8465C37.5505 21.8759 36.7116 18.9292 35.7768 16.0065C34.3148 11.4309 28.4306 9.59818 24.8474 12.8802C24.7036 13.012 24.4519 13.0958 24.2602 13.0958C21.7435 13.1078 19.2269 13.1078 16.7103 13.0958C16.4945 13.0958 16.2309 13.012 16.0751 12.8682C12.396 9.53829 6.38003 11.4907 5.01385 16.2461C4.88502 16.6863 4.75544 17.1265 4.62586 17.5667C4.23713 18.8873 3.8484 20.2079 3.4799 21.5285C3.39947 21.8143 3.31405 22.0989 3.22868 22.3833ZM27.433 20.2171C27.5667 20.0877 27.7129 19.9461 27.8794 19.7797C27.7517 19.6663 27.6297 19.5641 27.514 19.4672C27.3364 19.3184 27.1736 19.1821 27.0285 19.037C26.4173 18.4261 26.3814 17.7074 26.8967 17.1924C27.412 16.6773 28.131 16.7372 28.7422 17.3481C28.9414 17.5471 29.133 17.7537 29.3647 18.0034C29.4257 18.0692 29.4896 18.138 29.5571 18.2105C29.653 18.1041 29.7436 18.0007 29.8314 17.9006C30.0401 17.6627 30.2331 17.4426 30.4439 17.2403C30.9832 16.7252 31.6783 16.7132 32.1577 17.1804C32.661 17.6715 32.649 18.3902 32.1217 18.9412C31.9206 19.151 31.7003 19.3416 31.4375 19.569C31.3403 19.6532 31.2371 19.7425 31.127 19.8396C31.2771 19.9798 31.4193 20.1045 31.5545 20.223C31.754 20.3979 31.9383 20.5594 32.1097 20.7379C32.649 21.3009 32.649 22.0196 32.1577 22.4987C31.6543 22.9898 30.9593 22.9659 30.408 22.4149C30.2292 22.2284 30.0655 22.0268 29.8842 21.8035C29.7861 21.6826 29.6828 21.5553 29.5691 21.4207C29.4282 21.5704 29.305 21.7055 29.1914 21.8302C28.9958 22.0448 28.8283 22.2287 28.6463 22.4029C28.0711 22.9539 27.388 22.9898 26.8847 22.4987C26.3694 21.9956 26.3933 21.277 26.9566 20.69C27.1058 20.5341 27.2588 20.3859 27.433 20.2171ZM10.4971 18.6509C10.6364 18.6523 10.7809 18.6537 10.934 18.6537C10.934 18.5309 10.9331 18.4164 10.9323 18.3078C10.9301 18.0031 10.9283 17.7447 10.9459 17.4799C10.9699 16.7612 11.4732 16.2461 12.1443 16.2581C12.8035 16.2581 13.3068 16.7731 13.3308 17.5038C13.3386 17.7386 13.3362 17.9733 13.3336 18.2281C13.3322 18.3634 13.3308 18.5042 13.3308 18.6537C13.4694 18.6537 13.6038 18.6523 13.7355 18.651C13.9909 18.6483 14.2361 18.6458 14.4812 18.6537C15.2003 18.6777 15.7156 19.1808 15.7156 19.8396C15.7156 20.5103 15.2003 21.0134 14.4812 21.0374C14.2482 21.0452 14.0202 21.0428 13.7646 21.0403C13.6258 21.0389 13.479 21.0374 13.3188 21.0374C13.3188 21.1729 13.3202 21.3028 13.3216 21.429C13.3242 21.6708 13.3267 21.8991 13.3188 22.1274C13.3068 22.906 12.8394 23.4211 12.1443 23.433C11.4373 23.445 10.9459 22.918 10.934 22.1034V21.0374C10.7804 21.0374 10.6355 21.0388 10.4962 21.0402C10.2332 21.0428 9.99039 21.0452 9.74754 21.0374C9.05247 21.0015 8.54914 20.5103 8.53715 19.8755C8.51319 19.2167 9.01651 18.6897 9.73556 18.6537C9.98669 18.6459 10.2327 18.6483 10.4971 18.6509Z"/>
</mask>
<path fill-rule="evenodd" clip-rule="evenodd" d="M19.3467 10.6882H21.7196C21.7196 10.3159 21.7223 9.95171 21.725 9.59254C21.7303 8.88871 21.7354 8.20396 21.7196 7.51397C21.6956 6.8911 21.1923 6.43593 20.5931 6.39999C19.9939 6.37604 19.3947 6.79528 19.3587 7.39419C19.3252 8.15571 19.3327 8.91723 19.3402 9.68692C19.3435 10.0189 19.3467 10.3525 19.3467 10.6882ZM3.22868 22.3833C2.85608 23.6245 2.48441 24.8627 2.53316 26.188C2.53316 26.2679 2.53183 26.3477 2.5305 26.4276C2.52783 26.5873 2.52517 26.747 2.53316 26.9067C2.79681 31.0751 6.76352 33.7702 10.7302 32.4526C12.4919 31.8657 13.7502 30.6799 14.4812 28.9789C15.1523 27.4338 16.2309 26.2958 17.8128 25.7328C19.4186 25.1579 21.0844 25.1699 22.7143 25.5652C24.4999 26.0083 25.6503 27.2181 26.3933 28.8831C27.6277 31.674 30.7196 33.2671 33.5598 32.6083C36.9752 31.8178 39.2282 28.2363 38.3294 24.8465C37.5505 21.8759 36.7116 18.9292 35.7768 16.0065C34.3148 11.4309 28.4306 9.59818 24.8474 12.8802C24.7036 13.012 24.4519 13.0958 24.2602 13.0958C21.7435 13.1078 19.2269 13.1078 16.7103 13.0958C16.4945 13.0958 16.2309 13.012 16.0751 12.8682C12.396 9.53829 6.38003 11.4907 5.01385 16.2461C4.88502 16.6863 4.75544 17.1265 4.62586 17.5667C4.23713 18.8873 3.8484 20.2079 3.4799 21.5285C3.39947 21.8143 3.31405 22.0989 3.22868 22.3833ZM27.433 20.2171C27.5667 20.0877 27.7129 19.9461 27.8794 19.7797C27.7517 19.6663 27.6297 19.5641 27.514 19.4672C27.3364 19.3184 27.1736 19.1821 27.0285 19.037C26.4173 18.4261 26.3814 17.7074 26.8967 17.1924C27.412 16.6773 28.131 16.7372 28.7422 17.3481C28.9414 17.5471 29.133 17.7537 29.3647 18.0034C29.4257 18.0692 29.4896 18.138 29.5571 18.2105C29.653 18.1041 29.7436 18.0007 29.8314 17.9006C30.0401 17.6627 30.2331 17.4426 30.4439 17.2403C30.9832 16.7252 31.6783 16.7132 32.1577 17.1804C32.661 17.6715 32.649 18.3902 32.1217 18.9412C31.9206 19.151 31.7003 19.3416 31.4375 19.569C31.3403 19.6532 31.2371 19.7425 31.127 19.8396C31.2771 19.9798 31.4193 20.1045 31.5545 20.223C31.754 20.3979 31.9383 20.5594 32.1097 20.7379C32.649 21.3009 32.649 22.0196 32.1577 22.4987C31.6543 22.9898 30.9593 22.9659 30.408 22.4149C30.2292 22.2284 30.0655 22.0268 29.8842 21.8035C29.7861 21.6826 29.6828 21.5553 29.5691 21.4207C29.4282 21.5704 29.305 21.7055 29.1914 21.8302C28.9958 22.0448 28.8283 22.2287 28.6463 22.4029C28.0711 22.9539 27.388 22.9898 26.8847 22.4987C26.3694 21.9956 26.3933 21.277 26.9566 20.69C27.1058 20.5341 27.2588 20.3859 27.433 20.2171ZM10.4971 18.6509C10.6364 18.6523 10.7809 18.6537 10.934 18.6537C10.934 18.5309 10.9331 18.4164 10.9323 18.3078C10.9301 18.0031 10.9283 17.7447 10.9459 17.4799C10.9699 16.7612 11.4732 16.2461 12.1443 16.2581C12.8035 16.2581 13.3068 16.7731 13.3308 17.5038C13.3386 17.7386 13.3362 17.9733 13.3336 18.2281C13.3322 18.3634 13.3308 18.5042 13.3308 18.6537C13.4694 18.6537 13.6038 18.6523 13.7355 18.651C13.9909 18.6483 14.2361 18.6458 14.4812 18.6537C15.2003 18.6777 15.7156 19.1808 15.7156 19.8396C15.7156 20.5103 15.2003 21.0134 14.4812 21.0374C14.2482 21.0452 14.0202 21.0428 13.7646 21.0403C13.6258 21.0389 13.479 21.0374 13.3188 21.0374C13.3188 21.1729 13.3202 21.3028 13.3216 21.429C13.3242 21.6708 13.3267 21.8991 13.3188 22.1274C13.3068 22.906 12.8394 23.4211 12.1443 23.433C11.4373 23.445 10.9459 22.918 10.934 22.1034V21.0374C10.7804 21.0374 10.6355 21.0388 10.4962 21.0402C10.2332 21.0428 9.99039 21.0452 9.74754 21.0374C9.05247 21.0015 8.54914 20.5103 8.53715 19.8755C8.51319 19.2167 9.01651 18.6897 9.73556 18.6537C9.98669 18.6459 10.2327 18.6483 10.4971 18.6509Z" fill="#E60000"/>
<path d="M21.7196 10.6882V11.6882H22.7196V10.6882H21.7196ZM19.3467 10.6882H18.3467V11.6882H19.3467V10.6882ZM21.725 9.59254L20.725 9.58502V9.58502L21.725 9.59254ZM21.7196 7.51397L22.7193 7.49098L22.7191 7.48324L22.7188 7.47552L21.7196 7.51397ZM20.5931 6.39999L20.6529 5.40179L20.643 5.40119L20.633 5.40079L20.5931 6.39999ZM19.3587 7.39419L18.3605 7.33427L18.36 7.34225L18.3597 7.35025L19.3587 7.39419ZM19.3402 9.68692L20.3402 9.67713V9.67713L19.3402 9.68692ZM2.53316 26.188H3.53316V26.1696L3.53248 26.1513L2.53316 26.188ZM3.22868 22.3833L4.18645 22.6708L3.22868 22.3833ZM2.5305 26.4276L1.53063 26.4109L2.5305 26.4276ZM2.53316 26.9067L1.53432 26.9567L1.53515 26.9698L2.53316 26.9067ZM10.7302 32.4526L11.0455 33.4016L11.0463 33.4014L10.7302 32.4526ZM14.4812 28.9789L13.564 28.5806L13.5625 28.5841L14.4812 28.9789ZM17.8128 25.7328L18.1481 26.675L18.1499 26.6743L17.8128 25.7328ZM22.7143 25.5652L22.9551 24.5946L22.9499 24.5933L22.7143 25.5652ZM26.3933 28.8831L27.3079 28.4786L27.3065 28.4756L26.3933 28.8831ZM33.5598 32.6083L33.3343 31.6341L33.3338 31.6342L33.5598 32.6083ZM38.3294 24.8465L37.3621 25.1001L37.3628 25.1028L38.3294 24.8465ZM35.7768 16.0065L34.8243 16.3109L34.8244 16.3112L35.7768 16.0065ZM24.8474 12.8802L24.172 12.1428L24.1719 12.1429L24.8474 12.8802ZM24.2602 13.0958V12.0958L24.2554 12.0958L24.2602 13.0958ZM16.7103 13.0958L16.715 12.0958H16.7103V13.0958ZM16.0751 12.8682L16.7532 12.1332L16.7462 12.1268L16.0751 12.8682ZM5.01385 16.2461L5.97361 16.527L5.97497 16.5222L5.01385 16.2461ZM4.62586 17.5667L3.66656 17.2843L3.66656 17.2843L4.62586 17.5667ZM3.4799 21.5285L4.44252 21.7994L4.4431 21.7973L3.4799 21.5285ZM27.8794 19.7797L28.5863 20.487L29.3368 19.7368L28.5435 19.0321L27.8794 19.7797ZM27.433 20.2171L26.7373 19.4988L26.7373 19.4989L27.433 20.2171ZM27.514 19.4672L28.1561 18.7005L28.1561 18.7005L27.514 19.4672ZM27.0285 19.037L27.7354 18.3297L27.7354 18.3297L27.0285 19.037ZM26.8967 17.1924L26.1897 16.4851V16.4851L26.8967 17.1924ZM28.7422 17.3481L29.4492 16.6408L28.7422 17.3481ZM29.3647 18.0034L30.0977 17.3232L30.0977 17.3232L29.3647 18.0034ZM29.5571 18.2105L28.8254 18.8921L29.5696 19.6911L30.3003 18.8797L29.5571 18.2105ZM29.8314 17.9006L29.0796 17.2412L29.0796 17.2412L29.8314 17.9006ZM30.4439 17.2403L29.7533 16.5171L29.7516 16.5187L30.4439 17.2403ZM32.1577 17.1804L32.856 16.4647L32.8556 16.4642L32.1577 17.1804ZM32.1217 18.9412L32.8435 19.6333L32.8442 19.6326L32.1217 18.9412ZM31.4375 19.569L30.7831 18.8129L30.7831 18.8129L31.4375 19.569ZM31.127 19.8396L30.4656 19.0896L29.6397 19.8179L30.4441 20.57L31.127 19.8396ZM31.5545 20.223L32.2136 19.471V19.471L31.5545 20.223ZM32.1097 20.7379L32.8319 20.0462L32.8309 20.0452L32.1097 20.7379ZM32.1577 22.4987L31.4595 21.7828L31.4593 21.783L32.1577 22.4987ZM30.408 22.4149L29.6862 23.107L29.6935 23.1146L29.7011 23.1222L30.408 22.4149ZM29.8842 21.8035L29.1079 22.4338H29.1079L29.8842 21.8035ZM29.5691 21.4207L30.3333 20.7756L29.6099 19.9187L28.8411 20.7351L29.5691 21.4207ZM29.1914 21.8302L29.9305 22.5038L29.9305 22.5038L29.1914 21.8302ZM28.6463 22.4029L27.9546 21.6807H27.9546L28.6463 22.4029ZM26.8847 22.4987L26.1861 23.2143L26.1863 23.2145L26.8847 22.4987ZM26.9566 20.69L27.6781 21.3824L27.6791 21.3814L26.9566 20.69ZM10.934 18.6537V19.6537H11.934V18.6537H10.934ZM10.4971 18.6509L10.4872 19.6509H10.4872L10.4971 18.6509ZM10.9323 18.3078L11.9323 18.3006V18.3006L10.9323 18.3078ZM10.9459 17.4799L11.9437 17.5464L11.9448 17.5298L11.9454 17.5132L10.9459 17.4799ZM12.1443 16.2581L12.1265 17.2579L12.1354 17.2581H12.1443V16.2581ZM13.3308 17.5038L12.3313 17.5366L12.3313 17.5371L13.3308 17.5038ZM13.3336 18.2281L14.3335 18.2384V18.2384L13.3336 18.2281ZM13.3308 18.6537H12.3308V19.6537H13.3308V18.6537ZM13.7355 18.651L13.7458 19.6509H13.7458L13.7355 18.651ZM14.4812 18.6537L14.5145 17.6543L14.5135 17.6542L14.4812 18.6537ZM14.4812 21.0374L14.4479 20.0379L14.4479 20.0379L14.4812 21.0374ZM13.7646 21.0403L13.7747 20.0403H13.7746L13.7646 21.0403ZM13.3188 21.0374V20.0374H12.3188V21.0374H13.3188ZM13.3216 21.429L14.3215 21.4181V21.4181L13.3216 21.429ZM13.3188 22.1274L12.3194 22.0929L12.319 22.1025L12.3189 22.112L13.3188 22.1274ZM12.1443 23.433L12.1613 24.4329L12.1616 24.4329L12.1443 23.433ZM10.934 22.1034H9.93396V22.1108L9.93407 22.1182L10.934 22.1034ZM10.934 21.0374H11.934V20.0374H10.934V21.0374ZM10.4962 21.0402L10.5061 22.0402H10.5061L10.4962 21.0402ZM9.74754 21.0374L9.69591 22.0361L9.70561 22.0366L9.71532 22.0369L9.74754 21.0374ZM8.53715 19.8755L9.53697 19.8566L9.53681 19.8479L9.53649 19.8391L8.53715 19.8755ZM9.73556 18.6537L9.70434 17.6542L9.69498 17.6545L9.68564 17.655L9.73556 18.6537ZM21.7196 9.6882H19.3467V11.6882H21.7196V9.6882ZM20.725 9.58502C20.7223 9.94364 20.7196 10.3115 20.7196 10.6882H22.7196C22.7196 10.3202 22.7223 9.95978 22.725 9.60005L20.725 9.58502ZM20.7198 7.53696C20.7353 8.20916 20.7303 8.87863 20.725 9.58502L22.725 9.60005C22.7302 8.89878 22.7356 8.19877 22.7193 7.49098L20.7198 7.53696ZM20.5332 7.3982C20.5983 7.4021 20.6483 7.42828 20.6785 7.45727C20.7045 7.4823 20.7187 7.51077 20.7203 7.55242L22.7188 7.47552C22.6731 6.28628 21.7113 5.46526 20.6529 5.40179L20.5332 7.3982ZM20.3569 7.45411C20.3562 7.4667 20.3519 7.477 20.3501 7.48012C20.3494 7.48126 20.3552 7.47092 20.3752 7.45551C20.3953 7.44001 20.4238 7.42419 20.4583 7.41309C20.4926 7.40207 20.5255 7.39809 20.5531 7.3992L20.633 5.40079C19.6424 5.36118 18.4375 6.05118 18.3605 7.33427L20.3569 7.45411ZM20.3402 9.67713C20.3326 8.9029 20.3256 8.1683 20.3577 7.43812L18.3597 7.35025C18.3248 8.14311 18.3328 8.93156 18.3403 9.69671L20.3402 9.67713ZM20.3467 10.6882C20.3467 10.3468 20.3434 10.0084 20.3402 9.67713L18.3403 9.69671C18.3435 10.0295 18.3467 10.3582 18.3467 10.6882H20.3467ZM3.53248 26.1513C3.4908 25.0182 3.8062 23.9375 4.18645 22.6708L2.2709 22.0958C1.90595 23.3115 1.47801 24.7072 1.53383 26.2248L3.53248 26.1513ZM3.53036 26.4443C3.53166 26.3658 3.53316 26.2776 3.53316 26.188H1.53316C1.53316 26.2581 1.53199 26.3297 1.53063 26.4109L3.53036 26.4443ZM3.53191 26.8568C3.52586 26.7359 3.5276 26.6095 3.53036 26.4443L1.53063 26.4109C1.52806 26.5651 1.52447 26.7581 1.53441 26.9567L3.53191 26.8568ZM10.415 31.5036C7.07476 32.6131 3.7537 30.3619 3.53116 26.8436L1.53515 26.9698C1.83992 31.7883 6.45227 34.9273 11.0455 33.4016L10.415 31.5036ZM13.5625 28.5841C12.9406 30.0309 11.8968 31.0099 10.4141 31.5039L11.0463 33.4014C13.0869 32.7215 14.5598 31.3288 15.4 29.3738L13.5625 28.5841ZM17.4775 24.7907C15.5938 25.4611 14.3269 26.8241 13.564 28.5806L15.3985 29.3773C15.9778 28.0434 16.8679 27.1305 18.1481 26.675L17.4775 24.7907ZM22.9499 24.5933C21.1718 24.1621 19.3019 24.1375 17.4757 24.7914L18.1499 26.6743C19.5354 26.1782 20.9971 26.1777 22.4786 26.537L22.9499 24.5933ZM27.3065 28.4756C26.4738 26.6096 25.1155 25.1308 22.9551 24.5946L22.4734 26.5357C23.8842 26.8859 24.8268 27.8267 25.4802 29.2906L27.3065 28.4756ZM33.3338 31.6342C30.9864 32.1787 28.3587 30.8546 27.3079 28.4786L25.4788 29.2876C26.8967 32.4935 30.4528 34.3556 33.7857 33.5825L33.3338 31.6342ZM37.3628 25.1028C38.1109 27.9242 36.2226 30.9656 33.3343 31.6341L33.7853 33.5826C37.7279 32.67 40.3456 28.5484 39.296 24.5902L37.3628 25.1028ZM34.8244 16.3112C35.7526 19.2136 36.5867 22.1428 37.3621 25.1001L39.2967 24.5928C38.5143 21.6089 37.6705 18.6448 36.7293 15.7019L34.8244 16.3112ZM25.5228 13.6176C28.5194 10.8729 33.564 12.3666 34.8243 16.3109L36.7294 15.7022C35.0656 10.4951 28.3418 8.32345 24.172 12.1428L25.5228 13.6176ZM24.2602 14.0958C24.6606 14.0958 25.1663 13.9443 25.523 13.6175L24.1719 12.1429C24.2022 12.1151 24.2245 12.102 24.2309 12.0984C24.2383 12.0942 24.2398 12.0941 24.2356 12.0956C24.234 12.0962 24.2321 12.0968 24.2304 12.0973C24.2287 12.0977 24.2278 12.0979 24.228 12.0979C24.2282 12.0978 24.2305 12.0974 24.2351 12.0969C24.2396 12.0965 24.2481 12.0958 24.2602 12.0958V14.0958ZM16.7055 14.0958C19.2253 14.1078 21.7451 14.1078 24.2649 14.0958L24.2554 12.0958C21.742 12.1078 19.2285 12.1078 16.715 12.0958L16.7055 14.0958ZM15.397 13.6032C15.7765 13.9533 16.3019 14.0958 16.7103 14.0958V12.0958C16.7198 12.0958 16.721 12.0966 16.7151 12.0956C16.7096 12.0946 16.7031 12.093 16.6976 12.091C16.6919 12.0891 16.6925 12.0887 16.6994 12.0925C16.7055 12.096 16.7257 12.1079 16.7532 12.1333L15.397 13.6032ZM5.97497 16.5222C7.15424 12.4175 12.3196 10.818 15.4041 13.6097L16.7462 12.1268C12.4724 8.25863 5.60582 10.564 4.05273 15.97L5.97497 16.5222ZM5.58517 17.8491C5.71471 17.409 5.84451 16.9681 5.97359 16.527L4.05411 15.9652C3.92553 16.4045 3.79618 16.844 3.66656 17.2843L5.58517 17.8491ZM4.4431 21.7973C4.80938 20.4846 5.1961 19.1708 5.58517 17.8491L3.66656 17.2843C3.27817 18.6038 2.88742 19.9312 2.51669 21.2597L4.4431 21.7973ZM4.18645 22.6708C4.27141 22.3878 4.35935 22.0949 4.44251 21.7994L2.51728 21.2576C2.43959 21.5337 2.35669 21.81 2.2709 22.0958L4.18645 22.6708ZM27.1724 19.0724C27.0121 19.2326 26.8712 19.3692 26.7373 19.4988L28.1288 20.9354C28.2623 20.8061 28.4136 20.6596 28.5863 20.487L27.1724 19.0724ZM26.8719 20.2338C26.9887 20.3316 27.1 20.4249 27.2152 20.5272L28.5435 19.0321C28.4034 18.9076 28.2707 18.7965 28.1561 18.7005L26.8719 20.2338ZM26.3216 19.7443C26.5035 19.9261 26.7015 20.0911 26.8719 20.2338L28.1561 18.7005C27.9712 18.5457 27.8438 18.438 27.7354 18.3297L26.3216 19.7443ZM26.1897 16.4851C25.7487 16.9259 25.5007 17.5088 25.5423 18.1441C25.5827 18.762 25.888 19.3109 26.3216 19.7443L27.7354 18.3297C27.5578 18.1522 27.5395 18.0364 27.538 18.0135C27.5372 18.0012 27.5386 17.9928 27.5428 17.9823C27.5475 17.9706 27.5618 17.9415 27.6036 17.8997L26.1897 16.4851ZM29.4492 16.6408C29.0219 16.2138 28.4801 15.903 27.8673 15.8515C27.2313 15.798 26.6393 16.0357 26.1897 16.4851L27.6036 17.8997C27.6424 17.8609 27.6674 17.8499 27.6744 17.8473C27.6803 17.845 27.6864 17.8434 27.6997 17.8445C27.728 17.8469 27.8513 17.8715 28.0353 18.0554L29.4492 16.6408ZM30.0977 17.3232C29.8689 17.0765 29.6641 16.8556 29.4492 16.6408L28.0353 18.0554C28.2187 18.2387 28.3972 18.4309 28.6316 18.6835L30.0977 17.3232ZM30.2889 17.5289C30.2221 17.4573 30.1589 17.3891 30.0977 17.3232L28.6316 18.6835C28.6926 18.7493 28.7571 18.8188 28.8254 18.8921L30.2889 17.5289ZM29.0796 17.2412C28.9912 17.342 28.9048 17.4405 28.814 17.5414L30.3003 18.8797C30.4012 18.7676 30.496 18.6595 30.5833 18.5599L29.0796 17.2412ZM29.7516 16.5187C29.5043 16.756 29.2829 17.0094 29.0796 17.2412L30.5833 18.5599C30.7973 18.3159 30.9619 18.1292 31.1363 17.9618L29.7516 16.5187ZM32.8556 16.4642C32.4322 16.0516 31.8797 15.825 31.2934 15.8425C30.7129 15.8598 30.1764 16.113 29.7533 16.5171L31.1346 17.9634C31.2507 17.8526 31.3314 17.8422 31.3531 17.8416C31.369 17.8411 31.4038 17.842 31.4597 17.8966L32.8556 16.4642ZM32.8442 19.6326C33.2561 19.2022 33.5145 18.6528 33.526 18.0577C33.5376 17.4553 33.2934 16.8914 32.856 16.4647L31.4593 17.8961C31.5252 17.9605 31.5267 18.0015 31.5264 18.019C31.5259 18.0438 31.5147 18.1292 31.3992 18.2498L32.8442 19.6326ZM32.0919 20.3252C32.3471 20.1044 32.6043 19.8828 32.8435 19.6333L31.3999 18.2491C31.2368 18.4192 31.0535 18.5789 30.7831 18.8129L32.0919 20.3252ZM31.7885 20.5896C31.8946 20.496 31.9943 20.4097 32.0919 20.3252L30.7831 18.8129C30.6862 18.8968 30.5797 18.9889 30.4656 19.0896L31.7885 20.5896ZM32.2136 19.471C32.0773 19.3515 31.9467 19.2369 31.81 19.1091L30.4441 20.57C30.6075 20.7228 30.7612 20.8575 30.8953 20.975L32.2136 19.471ZM32.8309 20.0452C32.6246 19.8304 32.4074 19.6408 32.2136 19.471L30.8953 20.975C31.1007 21.155 31.2519 21.2884 31.3885 21.4306L32.8309 20.0452ZM32.8558 23.2147C33.2882 22.793 33.5316 22.2317 33.52 21.6304C33.5085 21.0349 33.2497 20.4824 32.8319 20.0462L31.3876 21.4297C31.5091 21.5565 31.5199 21.6448 31.5204 21.6691C31.5207 21.6877 31.5185 21.7253 31.4595 21.7828L32.8558 23.2147ZM29.7011 23.1222C30.12 23.5409 30.6579 23.8202 31.2568 23.8466C31.8643 23.8734 32.426 23.634 32.856 23.2145L31.4593 21.783C31.4193 21.8221 31.3899 21.837 31.3759 21.8427C31.3628 21.848 31.3538 21.849 31.3449 21.8486C31.3325 21.848 31.2473 21.8399 31.1149 21.7076L29.7011 23.1222ZM29.1079 22.4338C29.284 22.6507 29.4738 22.8854 29.6862 23.107L31.1298 21.7228C30.9846 21.5713 30.847 21.4028 30.6606 21.1732L29.1079 22.4338ZM28.805 22.0657C28.9116 22.192 29.0091 22.3121 29.1079 22.4338L30.6606 21.1732C30.5631 21.053 30.454 20.9187 30.3333 20.7756L28.805 22.0657ZM29.9305 22.5038C30.0445 22.3787 30.1625 22.2492 30.2971 22.1062L28.8411 20.7351C28.6938 20.8915 28.5656 21.0322 28.4523 21.1566L29.9305 22.5038ZM29.3381 23.1251C29.5488 22.9232 29.7394 22.7134 29.9305 22.5038L28.4523 21.1566C28.2521 21.3762 28.1077 21.5341 27.9546 21.6807L29.3381 23.1251ZM26.1863 23.2145C26.6187 23.6364 27.1816 23.8731 27.7924 23.8402C28.3877 23.8081 28.9185 23.527 29.3381 23.1251L27.9546 21.6807C27.799 21.8298 27.7006 21.8422 27.6847 21.8431C27.6758 21.8435 27.6695 21.8426 27.6603 21.839C27.6502 21.8349 27.6229 21.8219 27.5831 21.783L26.1863 23.2145ZM26.2351 19.9976C25.819 20.4312 25.5399 20.9808 25.5169 21.5879C25.4934 22.2081 25.7425 22.7812 26.1861 23.2143L27.5833 21.7832C27.5431 21.744 27.528 21.7152 27.5223 21.7016C27.5169 21.6886 27.5149 21.6776 27.5155 21.6637C27.5164 21.639 27.531 21.5358 27.6781 21.3824L26.2351 19.9976ZM26.7373 19.4989C26.5657 19.6651 26.3987 19.8266 26.2341 19.9986L27.6791 21.3814C27.8129 21.2416 27.952 21.1067 28.1288 20.9354L26.7373 19.4989ZM10.934 17.6537C10.7866 17.6537 10.6469 17.6523 10.507 17.651L10.4872 19.6509C10.626 19.6522 10.7752 19.6537 10.934 19.6537V17.6537ZM9.93237 18.315C9.93316 18.424 9.93396 18.5351 9.93396 18.6537H11.934C11.934 18.5268 11.9331 18.4088 11.9323 18.3006L9.93237 18.315ZM9.94816 17.4133C9.9276 17.7215 9.93022 18.0174 9.93237 18.315L11.9323 18.3006C11.9301 17.9889 11.9289 17.768 11.9437 17.5464L9.94816 17.4133ZM12.1622 15.2582C10.8792 15.2353 9.9864 16.25 9.9465 17.4465L11.9454 17.5132C11.9498 17.3808 11.9946 17.3174 12.0168 17.2948C12.0351 17.2761 12.063 17.2568 12.1265 17.2579L12.1622 15.2582ZM14.3302 17.471C14.2909 16.271 13.4103 15.2581 12.1443 15.2581V17.2581C12.2023 17.2581 12.2321 17.2763 12.2542 17.2993C12.2793 17.3255 12.3267 17.3949 12.3313 17.5366L14.3302 17.471ZM14.3335 18.2384C14.3361 17.9877 14.3389 17.7308 14.3302 17.4705L12.3313 17.5371C12.3383 17.7464 12.3363 17.959 12.3336 18.2179L14.3335 18.2384ZM14.3308 18.6537C14.3308 18.5101 14.3321 18.3742 14.3335 18.2384L12.3336 18.2179C12.3323 18.3526 12.3308 18.4984 12.3308 18.6537H14.3308ZM13.7252 17.651C13.5928 17.6524 13.4634 17.6537 13.3308 17.6537V19.6537C13.4753 19.6537 13.6148 19.6523 13.7458 19.6509L13.7252 17.651ZM14.5135 17.6542C14.2434 17.6455 13.9769 17.6484 13.7252 17.651L13.7458 19.6509C14.005 19.6483 14.2287 19.6461 14.449 19.6532L14.5135 17.6542ZM16.7156 19.8396C16.7156 18.5789 15.7079 17.694 14.5145 17.6543L14.4479 19.6532C14.5802 19.6576 14.647 19.7025 14.6735 19.7281C14.6972 19.7509 14.7156 19.7817 14.7156 19.8396H16.7156ZM14.5145 22.0368C15.7146 21.9968 16.7156 21.1058 16.7156 19.8396H14.7156C14.7156 19.9083 14.6936 19.9421 14.671 19.964C14.6454 19.9889 14.5801 20.0335 14.4479 20.0379L14.5145 22.0368ZM13.7545 22.0402C14.0062 22.0428 14.2561 22.0454 14.5145 22.0368L14.4479 20.0379C14.2403 20.0449 14.0342 20.0429 13.7747 20.0403L13.7545 22.0402ZM13.3188 22.0374C13.4732 22.0374 13.6153 22.0388 13.7545 22.0402L13.7746 20.0403C13.6364 20.0389 13.4847 20.0374 13.3188 20.0374V22.0374ZM14.3215 21.4181C14.3201 21.2912 14.3188 21.1666 14.3188 21.0374H12.3188C12.3188 21.1792 12.3203 21.3143 12.3216 21.4398L14.3215 21.4181ZM14.3182 22.1619C14.327 21.9071 14.3241 21.6559 14.3215 21.4181L12.3216 21.4398C12.3243 21.6858 12.3263 21.8912 12.3194 22.0929L14.3182 22.1619ZM12.1616 24.4329C12.7656 24.4225 13.3261 24.1856 13.7304 23.7374C14.1268 23.2978 14.3097 22.7268 14.3187 22.1428L12.3189 22.112C12.3159 22.3065 12.2591 22.3825 12.2451 22.398C12.237 22.407 12.2291 22.4127 12.2179 22.4176C12.2061 22.4228 12.1783 22.4323 12.1271 22.4332L12.1616 24.4329ZM9.93407 22.1182C9.94293 22.7204 10.132 23.3073 10.5413 23.7539C10.9597 24.2104 11.5403 24.4434 12.1613 24.4329L12.1274 22.4332C12.078 22.434 12.052 22.4255 12.0419 22.4212C12.0323 22.4173 12.0246 22.4122 12.0157 22.4025C11.9995 22.3849 11.937 22.301 11.9338 22.0887L9.93407 22.1182ZM9.93396 21.0374V22.1034H11.934V21.0374H9.93396ZM10.5061 22.0402C10.6459 22.0388 10.7861 22.0374 10.934 22.0374V20.0374C10.7747 20.0374 10.625 20.0389 10.4863 20.0403L10.5061 22.0402ZM9.71532 22.0369C9.98288 22.0455 10.2471 22.0427 10.5061 22.0402L10.4863 20.0403C10.2194 20.0429 9.99791 20.0449 9.77976 20.0379L9.71532 22.0369ZM7.53733 19.8944C7.56038 21.1156 8.54039 21.9763 9.69591 22.0361L9.79917 20.0387C9.67585 20.0323 9.60947 19.9893 9.58043 19.9613C9.55374 19.9355 9.53788 19.9048 9.53697 19.8566L7.53733 19.8944ZM9.68564 17.655C8.4763 17.7154 7.49198 18.652 7.53781 19.9119L9.53649 19.8391C9.53447 19.7837 9.55145 19.752 9.57442 19.7284C9.59926 19.7029 9.66107 19.6587 9.78547 19.6525L9.68564 17.655ZM10.507 17.651C10.246 17.6484 9.97945 17.6456 9.70434 17.6542L9.76677 19.6532C9.99392 19.6461 10.2193 19.6482 10.4872 19.6509L10.507 17.651Z" fill="#E60000" mask="url(#path-1-inside-1_184_902)"/>
</g>
</g>
<defs>
<filter id="filter0_b_184_902" x="-9.47217" y="-5.60098" width="60" height="50.3903" filterUnits="userSpaceOnUse" color-interpolation-filters="sRGB">
<feFlood flood-opacity="0" result="BackgroundImageFix"/>
<feGaussianBlur in="BackgroundImageFix" stdDeviation="6"/>
<feComposite in2="SourceAlpha" operator="in" result="effect1_backgroundBlur_184_902"/>
<feBlend mode="normal" in="SourceGraphic" in2="effect1_backgroundBlur_184_902" result="shape"/>
</filter>
<clipPath id="clip0_184_902">
<rect width="36" height="26.4" fill="white" transform="translate(2.5332 6.39999)"/>
</clipPath>
</defs>
</svg>
