<svg width="28" height="29" viewBox="0 0 28 29" fill="none" xmlns="http://www.w3.org/2000/svg">
<path d="M25.4399 11.7502H24.5002V11.7017H14.0002V16.3684H20.5936C19.6317 19.085 17.0469 21.0351 14.0002 21.0351C10.1344 21.0351 7.00016 17.9008 7.00016 14.0351C7.00016 10.1693 10.1344 7.03508 14.0002 7.03508C15.7846 7.03508 17.408 7.70824 18.6441 8.80783L21.944 5.50791C19.8603 3.56599 17.0732 2.36841 14.0002 2.36841C7.55725 2.36841 2.3335 7.59216 2.3335 14.0351C2.3335 20.478 7.55725 25.7017 14.0002 25.7017C20.4431 25.7017 25.6668 20.478 25.6668 14.0351C25.6668 13.2528 25.5863 12.4892 25.4399 11.7502Z" fill="#FFC107"/>
<path d="M3.67871 8.60482L7.51179 11.4159C8.54896 8.84807 11.0608 7.03507 14.0002 7.03507C15.7846 7.03507 17.408 7.70824 18.6441 8.80782L21.944 5.50791C19.8604 3.56599 17.0732 2.36841 14.0002 2.36841C9.51904 2.36841 5.63288 4.89832 3.67871 8.60482Z" fill="#FF3D00"/>
<path d="M14 25.7018C17.0135 25.7018 19.7517 24.5485 21.8219 22.6731L18.2111 19.6176C17.0004 20.5384 15.521 21.0363 14 21.0351C10.9655 21.0351 8.38894 19.1002 7.41827 16.4L3.61377 19.3312C5.5446 23.1095 9.46577 25.7018 14 25.7018Z" fill="#4CAF50"/>
<path d="M25.4398 11.7502H24.5V11.7018H14V16.3684H20.5934C20.1333 17.6614 19.3045 18.7911 18.2093 19.6182L18.2111 19.617L21.8219 22.6725C21.5664 22.9047 25.6667 19.8684 25.6667 14.0351C25.6667 13.2529 25.5862 12.4893 25.4398 11.7502Z" fill="#1976D2"/>
</svg>
