<svg width="28" height="28" viewBox="0 0 28 28" fill="none" xmlns="http://www.w3.org/2000/svg">
<path d="M15.3708 0.701782C16.8708 0.705782 17.6321 0.713782 18.2894 0.732449L18.5481 0.741782C18.8468 0.752449 19.1414 0.765782 19.4974 0.781782C20.9161 0.848449 21.8841 1.07245 22.7334 1.40178C23.6135 1.74045 24.3548 2.19912 25.0961 2.93912C25.7741 3.60564 26.2987 4.4119 26.6335 5.30178C26.9628 6.15112 27.1868 7.11912 27.2535 8.53912C27.2695 8.89378 27.2828 9.18845 27.2935 9.48845L27.3015 9.74712C27.3215 10.4031 27.3295 11.1644 27.3321 12.6644L27.3335 13.6591V15.4058C27.3367 16.3783 27.3265 17.3509 27.3028 18.3231L27.2948 18.5818C27.2841 18.8818 27.2708 19.1764 27.2548 19.5311C27.1881 20.9511 26.9615 21.9178 26.6335 22.7684C26.2997 23.6588 25.7749 24.4653 25.0961 25.1311C24.4294 25.8089 23.6232 26.3335 22.7334 26.6684C21.8841 26.9978 20.9161 27.2218 19.4974 27.2885C19.1811 27.3033 18.8646 27.3167 18.5481 27.3284L18.2894 27.3364C17.6321 27.3551 16.8708 27.3645 15.3708 27.3671L14.3761 27.3685H12.6308C11.6578 27.3718 10.6848 27.3616 9.71212 27.3378L9.45345 27.3298C9.13693 27.3178 8.82048 27.304 8.50412 27.2885C7.08545 27.2218 6.11745 26.9978 5.26678 26.6684C4.37701 26.3343 3.57107 25.8096 2.90545 25.1311C2.22685 24.4648 1.70175 23.6585 1.36678 22.7684C1.03745 21.9191 0.813452 20.9511 0.746785 19.5311C0.73193 19.2147 0.718597 18.8983 0.706785 18.5818L0.700118 18.3231C0.675548 17.3509 0.664436 16.3783 0.666785 15.4058V12.6644C0.663064 11.6919 0.672842 10.7194 0.696118 9.74712L0.705452 9.48845C0.716118 9.18845 0.729452 8.89378 0.745452 8.53912C0.812118 7.11912 1.03612 6.15245 1.36545 5.30178C1.70027 4.41099 2.22641 3.60448 2.90678 2.93912C3.57224 2.26108 4.37764 1.73643 5.26678 1.40178C6.11745 1.07245 7.08412 0.848449 8.50412 0.781782C8.85878 0.765782 9.15478 0.752449 9.45345 0.741782L9.71212 0.733782C10.6844 0.710093 11.6569 0.699869 12.6295 0.703115L15.3708 0.701782ZM14.0001 7.36845C12.232 7.36845 10.5363 8.07083 9.28607 9.32107C8.03583 10.5713 7.33345 12.267 7.33345 14.0351C7.33345 15.8032 8.03583 17.4989 9.28607 18.7492C10.5363 19.9994 12.232 20.7018 14.0001 20.7018C15.7682 20.7018 17.4639 19.9994 18.7142 18.7492C19.9644 17.4989 20.6668 15.8032 20.6668 14.0351C20.6668 12.267 19.9644 10.5713 18.7142 9.32107C17.4639 8.07083 15.7682 7.36845 14.0001 7.36845ZM14.0001 10.0351C14.5254 10.035 15.0456 10.1384 15.5309 10.3393C16.0162 10.5403 16.4572 10.8348 16.8287 11.2062C17.2002 11.5776 17.4949 12.0185 17.696 12.5038C17.8971 12.989 18.0007 13.5092 18.0008 14.0344C18.0009 14.5597 17.8975 15.0799 17.6966 15.5652C17.4956 16.0506 17.2011 16.4916 16.8297 16.8631C16.4583 17.2346 16.0174 17.5293 15.5321 17.7304C15.0469 17.9315 14.5267 18.035 14.0015 18.0351C12.9406 18.0351 11.9232 17.6137 11.173 16.8635C10.4229 16.1134 10.0015 15.096 10.0015 14.0351C10.0015 12.9742 10.4229 11.9568 11.173 11.2067C11.9232 10.4565 12.9406 10.0351 14.0015 10.0351M21.0014 5.36845C20.5594 5.36845 20.1355 5.54404 19.8229 5.8566C19.5104 6.16917 19.3348 6.59309 19.3348 7.03512C19.3348 7.47714 19.5104 7.90107 19.8229 8.21363C20.1355 8.52619 20.5594 8.70178 21.0014 8.70178C21.4435 8.70178 21.8674 8.52619 22.18 8.21363C22.4925 7.90107 22.6681 7.47714 22.6681 7.03512C22.6681 6.59309 22.4925 6.16917 22.18 5.8566C21.8674 5.54404 21.4435 5.36845 21.0014 5.36845Z" fill="#686677"/>
</svg>
