<svg width="28" height="24" viewBox="0 0 28 24" fill="none" xmlns="http://www.w3.org/2000/svg">
<path d="M27.9466 3.0352C26.9199 3.50186 25.8132 3.80853 24.6666 3.9552C25.8399 3.24853 26.7466 2.12853 27.1732 0.781864C26.0666 1.44853 24.8399 1.9152 23.5466 2.18186C22.4932 1.0352 21.0132 0.36853 19.3332 0.36853C16.1999 0.36853 13.6399 2.92853 13.6399 6.08853C13.6399 6.54186 13.6932 6.98186 13.7866 7.3952C9.03989 7.1552 4.81322 4.8752 1.99989 1.42186C1.50656 2.26186 1.22656 3.24853 1.22656 4.28853C1.22656 6.2752 2.22656 8.0352 3.77322 9.0352C2.82656 9.0352 1.94656 8.76853 1.17322 8.36853V8.40853C1.17322 11.1819 3.14656 13.5019 5.75989 14.0219C4.92086 14.2515 4.04002 14.2834 3.18656 14.1152C3.5487 15.2518 4.25794 16.2464 5.21458 16.9591C6.17122 17.6718 7.32715 18.0668 8.51989 18.0885C6.49806 19.6891 3.99188 20.5543 1.41322 20.5419C0.959889 20.5419 0.506556 20.5152 0.0532227 20.4619C2.58656 22.0885 5.59989 23.0352 8.82656 23.0352C19.3332 23.0352 25.1066 14.3152 25.1066 6.7552C25.1066 6.50186 25.1066 6.26186 25.0932 6.00853C26.2132 5.20853 27.1732 4.1952 27.9466 3.0352Z" fill="#686677"/>
</svg>
